<?xml version="1.0" standalone="no"?>
<!DOCTYPE svg PUBLIC "-//W3C//DTD SVG 20010904//EN"
 "http://www.w3.org/TR/2001/REC-SVG-20010904/DTD/svg10.dtd">
<svg version="1.0" xmlns="http://www.w3.org/2000/svg"
 width="1280.000000pt" height="666.000000pt" viewBox="0 0 1280.000000 666.000000"
 preserveAspectRatio="xMidYMid meet">
<metadata>
Created by potrace 1.15, written by Peter Selinger 2001-2017
</metadata>
<g transform="translate(0.000000,666.000000) scale(0.100000,-0.100000)"
fill="#000000" stroke="none">
<path d="M6584 5913 c1 -523 -3 -814 -12 -968 -8 -121 -15 -222 -17 -223 -3
-4 -873 -53 -3418 -195 l-757 -42 -175 175 -174 175 -22 195 c-12 107 -22 196
-23 197 -1 2 -272 33 -291 33 -11 0 -15 -10 -15 -35 0 -19 -3 -35 -7 -35 -4 0
-247 240 -540 532 -511 510 -534 532 -567 530 -80 -7 -457 -60 -462 -65 -3 -3
53 -126 124 -274 634 -1310 762 -1576 759 -1579 -2 -2 -39 -9 -83 -14 -136
-17 -252 -60 -274 -99 -15 -30 -12 -170 6 -230 19 -65 67 -120 144 -163 l58
-33 -410 -320 c-225 -176 -414 -326 -420 -333 -6 -7 -8 -15 -5 -18 3 -3 115 9
248 26 l243 32 429 209 c236 115 434 209 441 209 7 0 52 -14 102 -30 238 -81
1216 -350 1344 -369 130 -20 462 -45 1120 -86 883 -55 1273 -85 1420 -111 47
-8 125 -19 175 -25 49 -6 91 -12 92 -13 5 -5 -106 -182 -233 -371 l-133 -200
-227 -210 c-646 -598 -2209 -2057 -2212 -2065 -6 -18 71 -89 114 -106 53 -20
129 -14 199 16 123 53 813 534 2184 1524 l384 277 316 -70 c436 -97 578 -115
997 -131 135 -5 256 -5 268 0 29 11 70 57 94 106 35 69 65 236 64 355 -1 149
-22 231 -80 315 -41 60 -54 71 -97 87 -96 34 -310 14 -684 -63 -52 -11 -95
-19 -97 -17 -1 1 146 125 328 275 l330 272 88 0 c49 0 124 5 167 11 116 16
396 90 583 154 91 31 190 60 220 65 149 24 771 52 2265 100 964 31 1072 37
1200 65 349 78 866 267 1010 370 125 88 143 128 127 266 -7 55 -19 116 -27
136 -39 92 -114 154 -305 252 -101 52 -153 86 -241 161 -158 134 -212 174
-309 224 -171 89 -419 133 -960 171 l-235 17 -1525 -86 c-839 -47 -1547 -86
-1573 -86 -30 0 -47 4 -47 12 0 11 -108 366 -451 1482 -48 159 -90 290 -91
291 -4 2 -432 95 -440 95 -3 0 -5 -336 -4 -747z"/>
</g>
</svg>
